<svg xmlns="http://www.w3.org/2000/svg" viewBox="0 0 64 64">
  <path fill="#07c160" d="M27 8C14.8 8 5 15.5 5 25c0 5.2 3 9.9 7.7 13l-1.5 7.1 8.2-4.1c2.4.6 4.9 1 7.6 1 1.2 0 2.4-.1 3.5-.2-.5-1.5-.7-3.1-.7-4.7 0-10.1 8.2-18.3 19.2-19.9C45.8 11.7 37.3 8 27 8Z"/>
  <path fill="#07c160" d="M47 20c-9.4 0-17 6.3-17 14.1S37.6 48 47 48c1.6 0 3.1-.2 4.5-.6l6.4 3.2-1.2-5.7c3.3-2.6 5.3-6.4 5.3-10.8C62 26.3 55.9 20 47 20Z"/>
  <circle cx="19" cy="24" r="2" fill="#fff"/>
  <circle cx="32" cy="24" r="2" fill="#fff"/>
  <circle cx="41" cy="33" r="1.7" fill="#fff"/>
  <circle cx="52" cy="33" r="1.7" fill="#fff"/>
</svg>
